PathFileType	4	(X/Y/Z)	E:\Qualisys_Data\Carbon_Farble_Plate\Data\Amateur_Runner\S1\T3\S1T3V12_c3d.trc
DataRate	CameraRate	NumFrames	NumMarkers	Units	OrigDataRate	OrigDataStartFrame	OrigNumFrames
200.000000	200.000000	4	39	mm	200.000000	80	322
Frame#	Time	LSHO			RSHO			LICST			RICST			LASIS			LHEEL			RASIS			LTROC			RTROC			SACR			LTH1			LSK4			LTH2			LTH3			RHM5			LSK2			LTH4			RTH1			LTOE			RTH2			RTH3			RTH4			LLEP			RLEP			LSK1			LSK3			RSK1			LHM5			RSK2			LFT1			RSK3			RSK4			LLME			RLME			RTOE			RHEEL			RFT1			RFT2			LFT2			
		X1	Y1	Z1	X2	Y2	Z2	X3	Y3	Z3	X4	Y4	Z4	X5	Y5	Z5	X6	Y6	Z6	X7	Y7	Z7	X8	Y8	Z8	X9	Y9	Z9	X10	Y10	Z10	X11	Y11	Z11	X12	Y12	Z12	X13	Y13	Z13	X14	Y14	Z14	X15	Y15	Z15	X16	Y16	Z16	X17	Y17	Z17	X18	Y18	Z18	X19	Y19	Z19	X20	Y20	Z20	X21	Y21	Z21	X22	Y22	Z22	X23	Y23	Z23	X24	Y24	Z24	X25	Y25	Z25	X26	Y26	Z26	X27	Y27	Z27	X28	Y28	Z28	X29	Y29	Z29	X30	Y30	Z30	X31	Y31	Z31	X32	Y32	Z32	X33	Y33	Z33	X34	Y34	Z34	X35	Y35	Z35	X36	Y36	Z36	X37	Y37	Z37	X38	Y38	Z38	X39	Y39	Z39	

81	0.4	-1237.743286132812	1544.021728515625	-527.770263671875	-1179.925537109375	1543.875610351562	-210.5486145019531	-1237.547119140625	1076.534545898438	-487.3010559082031	-1240.277099609375	1097.29052734375	-192.8838958740234	-1195.4033203125	1038.018188476562	-458.6089477539062	-1084.52490234375	102.16259765625	-382.0508728027344	-1206.152954101562	1045.771728515625	-197.3943176269531	-1292.615234375	952.8865356445312	-508.3677978515625	-1332.739501953125	976.923095703125	-169.0713195800781	-1357.908081054688	1107.939819335938	-339.3608093261719	-1138.707397460938	824.1529541015625	-472.5011901855469	-1124.047485351562	272.181640625	-415.1266174316406	-1209.35791015625	796.827392578125	-513.945556640625	-1110.225463867188	724.6873779296875	-459.2496337890625	-1767.906860351562	182.4153442382812	-209.0594024658203	-1140.526123046875	367.134521484375	-455.0343627929688	-1187.439819335938	700.6679077148438	-491.0722351074219	-1251.290893554688	816.4536743164062	-197.0508575439453	-851.276611328125	199.1424255371094	-397.7196960449219	-1321.389770507812	838.3551025390625	-167.1178741455078	-1285.970581054688	722.34033203125	-209.6873016357422	-1357.918579101562	746.9513549804688	-182.7228240966797	-1106.11669921875	580.7784423828125	-443.077392578125	-1404.119873046875	579.1566162109375	-219.9293823242188	-1057.388916015625	377.4136352539062	-451.6503295898438	-1048.328491210938	276.9703063964844	-444.9713745117188	-1558.224487304688	463.1124877929688	-198.7115325927734	-906.446044921875	147.2586364746094	-452.8179321289062	-1607.822265625	526.0579833984375	-214.52001953125	-1061.630249023438	81.98312377929688	-352.2853088378906	-1635.395385742188	398.3697814941406	-208.3639678955078	-1682.943725585938	460.1679992675781	-234.6910400390625	-1046.510864257812	149.6521301269531	-433.1195678710938	-1758.682373046875	337.5356140136719	-210.9218292236328	-1728.149047851562	143.2686004638672	-279.5470581054688	-1817.438598632812	377.1537780761719	-254.1168060302734	-1836.246337890625	361.31005859375	-287.9865112304688	-1841.597778320312	364.6141357421875	-235.6536865234375	-1064.103515625	72.87503814697266	-403.19287109375
82	0.405	-1222.231567382812	1540.25244140625	-529.1896362304688	-1163.571655273438	1541.40966796875	-211.4699554443359	-1221.697631835938	1074.273803710938	-487.0015869140625	-1224.090698242188	1094.473754882812	-191.9368286132812	-1179.486572265625	1035.896606445312	-458.7628173828125	-1070.51708984375	99.11473083496094	-379.974365234375	-1189.461547851562	1042.885498046875	-197.9458923339844	-1276.99853515625	950.51025390625	-508.1309204101562	-1315.39990234375	973.510498046875	-168.3780059814453	-1341.937744140625	1104.516845703125	-338.9194641113281	-1122.837280273438	822.2258911132812	-472.6703186035156	-1109.654907226562	269.0448303222656	-414.0775756835938	-1193.53271484375	794.8159790039062	-514.1995239257812	-1093.983032226562	722.9762573242188	-460.0129699707031	-1754.909301757812	187.39453125	-208.2623443603516	-1124.823974609375	364.2238159179688	-453.9712829589844	-1171.629638671875	698.727294921875	-490.3976135253906	-1232.905151367188	813.3179321289062	-197.4458923339844	-837.2750854492188	195.9122924804688	-396.9338073730469	-1302.6513671875	833.863037109375	-167.0975341796875	-1266.446533203125	718.967529296875	-209.8211212158203	-1338.659790039062	742.1405029296875	-182.8319549560547	-1090.8427734375	577.9385375976562	-442.0819396972656	-1383.900268554688	575.2227783203125	-219.3785705566406	-1041.97998046875	374.759033203125	-450.0435485839844	-1033.5810546875	273.9859313964844	-443.2411499023438	-1540.889038085938	461.9358825683594	-199.1865539550781	-892.8037109375	144.8771514892578	-452.7024841308594	-1588.357055664062	526.8497314453125	-213.6509552001953	-1047.525756835938	79.0137939453125	-350.4091186523438	-1619.331420898438	399.9040222167969	-207.4667510986328	-1664.664428710938	462.6788940429688	-234.2326965332031	-1033.288208007812	146.8018798828125	-430.2784118652344	-1741.950561523438	342.7532348632812	-209.6958923339844	-1717.589233398438	148.3485107421875	-279.6841735839844	-1802.45849609375	383.2542419433594	-252.1667785644531	-1821.576293945312	367.8180847167969	-287.143798828125	-1826.123779296875	371.4525146484375	-234.4506225585938	-1050.763305664062	70.15367126464844	-401.4556579589844
83	0.41	-1205.46923828125	1536.3408203125	-530.0713500976562	-1147.206176757812	1538.974243164062	-212.5697021484375	-1206.073120117188	1071.833862304688	-487.0502319335938	-1207.8115234375	1090.968017578125	-191.9043273925781	-1163.233642578125	1033.464965820312	-459.1248474121094	-1057.576538085938	95.84416198730467	-377.6575927734375	-1173.0087890625	1039.91357421875	-197.3052368164062	-1261.282592773438	947.8319091796876	-507.5590209960938	-1298.244262695312	969.2974243164062	-167.2082824707031	-1326.28173828125	1101.57666015625	-338.4814758300781	-1106.663818359375	820.50537109375	-473.1033325195312	-1095.745727539062	266.114990234375	-413.0281677246094	-1177.459838867188	792.77490234375	-513.8836669921875	-1077.566772460938	721.14990234375	-460.6564331054688	-1742.349487304688	192.2160186767578	-207.2837371826172	-1109.918823242188	361.3572387695312	-453.2444152832031	-1155.62255859375	697.2169799804688	-489.5549011230469	-1214.45654296875	810.0103759765625	-197.5509948730469	-824.0576171875	191.9535217285156	-396.4100036621094	-1284.080932617188	829.9555053710938	-167.3269195556641	-1246.802490234375	715.316650390625	-209.6539764404297	-1318.621459960938	738.0128784179688	-182.4012451171875	-1075.34326171875	575.0452270507812	-441.294677734375	-1364.041015625	570.6243896484375	-219.1649475097656	-1027.441772460938	371.2415771484375	-448.3012084960938	-1019.167907714844	270.3568420410156	-440.9375610351562	-1522.274047851562	461.10205078125	-197.4339141845703	-880.9379272460938	141.5005493164062	-451.7710266113281	-1568.162963867188	526.9490356445312	-213.5623474121094	-1034.164672851562	75.39031219482422	-348.5825805664062	-1602.340209960938	401.0294494628906	-207.3825988769531	-1647.00927734375	464.853759765625	-233.9125823974609	-1020.617797851562	143.9911193847656	-428.7174377441406	-1727.23095703125	347.2330932617188	-208.7704315185547	-1706.010864257812	152.5567321777344	-278.3486328125	-1786.06982421875	388.9651489257812	-251.5872497558594	-1805.943115234375	374.265380859375	-285.6191711425781	-1810.216430664062	377.2500915527344	-232.7335968017578	-1038.21142578125	67.13719177246094	-399.8379211425781
84	0.415	-1188.9521484375	1532.47509765625	-531.0526733398438	-1130.583618164062	1536.262939453125	-213.2623748779297	-1191.887573242188	1069.01220703125	-487.3926086425781	-1191.513793945312	1087.985229492188	-191.2145080566406	-1147.374755859375	1031.098876953125	-459.4912109375	-1044.322509765625	94.71775817871094	-372.1699523925781	-1156.707641601562	1036.651123046875	-197.5715179443359	-1245.588989257812	944.786376953125	-507.2145385742188	-1281.625244140625	965.3848876953124	-166.2951812744141	-1309.941162109375	1097.5771484375	-337.4316711425781	-1089.683471679688	819.0384521484375	-474.5377502441406	-1082.820190429688	262.6289367675781	-411.9770202636719	-1161.560668945312	790.9448852539062	-513.4740600585938	-1060.6005859375	719.68798828125	-460.9250793457031	-1729.256591796875	197.6644439697266	-205.7080383300781	-1095.913818359375	357.6212463378906	-452.9155578613281	-1139.535888671875	695.4591674804688	-488.0627746582031	-1196.065185546875	806.6539916992188	-197.4941101074219	-812.533447265625	187.7774505615234	-396.3185424804688	-1265.687622070312	825.8748779296875	-167.0520629882812	-1227.207275390625	711.7437133789062	-208.5852813720703	-1299.33447265625	733.31494140625	-181.5157165527344	-1060.074340820312	571.8079223632812	-440.832763671875	-1342.400390625	565.8209838867188	-217.6499481201172	-1013.0234375	367.6753845214844	-446.5119934082031	-1005.504211425781	266.8351440429688	-439.0314025878906	-1503.118408203125	459.7532043457031	-198.7046661376953	-869.6028442382812	136.7577209472656	-450.0646057128906	-1547.595825195312	526.9655151367188	-213.0766448974609	-1022.455688476562	71.3821792602539	-346.6855163574219	-1584.799194335938	401.8210754394531	-206.4838562011719	-1626.546630859375	466.7532958984375	-232.4853057861328	-1009.837341308594	140.3951721191406	-427.1116943359375	-1712.563842773438	351.4918823242188	-208.4248962402344	-1693.6552734375	156.1062469482422	-276.8609619140625	-1768.858520507812	394.7660827636719	-250.1576538085938	-1789.894897460938	380.2087707519531	-283.8488464355469	-1793.340454101562	383.4638977050781	-231.4884490966797	-1027.222412109375	62.98622131347656	-397.0491333007812
